<?xml version="1.0" standalone="no"?><!DOCTYPE svg PUBLIC "-//W3C//DTD SVG 1.1//EN" "http://www.w3.org/Graphics/SVG/1.1/DTD/svg11.dtd"><svg class="icon" width="512px" height="512.00px" viewBox="0 0 1024 1024" version="1.1" xmlns="http://www.w3.org/2000/svg"><path d="M604.282885 884.698813l54.969713 117.68254a511.941447 511.941447 0 0 1-231.461527 14.590331l37.819675-123.825838a387.859639 387.859639 0 0 0 138.672139-8.447033zM511.941447 0a512.133425 512.133425 0 0 1 498.88694 396.562643l-126.321552 22.269453a383.956085 383.956085 0 1 0-541.634051 437.901915l-37.755682 123.633859A512.069432 512.069432 0 0 1 511.941447 0z m293.214463 759.849092l115.05884 61.049018a514.629139 514.629139 0 0 1-143.983531 129.585178l-54.521765-116.914627c31.292421-20.477658 59.385208-45.306818 83.446456-73.719569z m218.40702-235.557058L1023.882893 511.941447c0 70.199971-14.07839 137.136315-39.675462 198.057347l-113.714994-60.409091a381.780334 381.780334 0 0 0 23.805278-102.388289l129.265215-22.90938zM496.519211 319.963404v210.343942H703.919489V639.926808H383.956085V319.963404h112.563126z" fill="#ffffff" /></svg>