<?xml version="1.0" standalone="no"?><!DOCTYPE svg PUBLIC "-//W3C//DTD SVG 1.1//EN" "http://www.w3.org/Graphics/SVG/1.1/DTD/svg11.dtd"><svg class="icon" width="512px" height="512.00px" viewBox="0 0 1024 1024" version="1.1" xmlns="http://www.w3.org/2000/svg"><path d="M501.8 121.6h20.4v128h-20.4z" fill="#A0ABBD" /><path d="M512 873.5H226.5c-32.6 0-59.1-26.4-59.1-59.1V285.7c0-32.6 26.4-59.1 59.1-59.1H512v646.9z" fill="#6484BF" /><path d="M512 226.7h285.5c32.6 0 59.1 26.4 59.1 59.1v528.7c0 32.6-26.4 59.1-59.1 59.1H512V226.7z" fill="#4C6FAF" /><path d="M640.1 448.2m-59.1 0a59.1 59.1 0 1 0 118.2 0 59.1 59.1 0 1 0-118.2 0Z" fill="#FFFFFF" /><path d="M384.1 448.2m-59.1 0a59.1 59.1 0 1 0 118.2 0 59.1 59.1 0 1 0-118.2 0Z" fill="#FFFFFF" /><path d="M512 113.2m-49 0a49 49 0 1 0 98 0 49 49 0 1 0-98 0Z" fill="#A0ABBD" /><path d="M167.6 615.6l-54.4-27.2V458.1l54.4-29.2zM856.4 427.9l54.4 27.3v130.2l-54.4 29.2z" fill="#39507A" /></svg>