<?xml version="1.0" standalone="no"?><!DOCTYPE svg PUBLIC "-//W3C//DTD SVG 1.1//EN" "http://www.w3.org/Graphics/SVG/1.1/DTD/svg11.dtd"><svg class="icon" width="512px" height="512.00px" viewBox="0 0 1024 1024" version="1.1" xmlns="http://www.w3.org/2000/svg"><path d="M437.248 626.8928a283.4432 283.4432 0 1 1 284.672-283.4432 284.2624 284.2624 0 0 1-284.672 283.4432z m0-480.4608" fill="#ffffff" /><path d="M53.6576 963.9936A44.032 44.032 0 0 1 9.0112 921.6a454.0416 454.0416 0 0 1 454.0416-453.8368 43.2128 43.2128 0 1 1 0 86.4256A366.1824 366.1824 0 0 0 98.304 921.6a44.032 44.032 0 0 1-44.6464 43.2128z m0 0" fill="#ffffff" /><path d="M817.3568 963.9936A44.032 44.032 0 0 1 772.7104 921.6a366.1824 366.1824 0 0 0-364.7488-366.592 43.2128 43.2128 0 1 1 0-86.4256A454.0416 454.0416 0 0 1 862.0032 921.6a44.032 44.032 0 0 1-44.6464 43.2128z m0 0" fill="#ffffff" /><path d="M709.0176 535.7568a455.8848 455.8848 0 0 1 193.536 244.5312h112.4352a327.68 327.68 0 0 0-156.8768-279.552A204.8 204.8 0 0 0 712.9088 155.648a280.9856 280.9856 0 0 1-3.8912 380.1088z" fill="#ffffff" /></svg>