<?xml version="1.0" standalone="no"?><!DOCTYPE svg PUBLIC "-//W3C//DTD SVG 1.1//EN" "http://www.w3.org/Graphics/SVG/1.1/DTD/svg11.dtd"><svg class="icon" width="512px" height="508.03px" viewBox="0 0 1032 1024" version="1.1" xmlns="http://www.w3.org/2000/svg"><path d="M510.952547 0c-282.190917 0-510.952547 228.761631-510.952547 510.952547 0 282.19296 228.761631 510.952547 510.952547 510.952547 282.19296 0 510.952547-228.759587 510.952547-510.952547C1021.905095 228.761631 793.143464 0 510.952547 0zM730.067394 663.829549c18.292101 18.292101 18.292101 47.947787 0 66.239888-18.292101 18.292101-47.947787 18.292101-66.239888 0l-152.877002-152.877002-152.877002 152.877002c-18.292101 18.292101-47.947787 18.292101-66.239888 0-18.292101-18.292101-18.292101-47.947787 0-66.239888l152.877002-152.877002-152.877002-152.877002c-18.292101-18.292101-18.292101-47.947787 0-66.239888 18.292101-18.292101 47.947787-18.292101 66.239888 0l152.877002 152.877002 152.877002-152.877002c18.292101-18.292101 47.947787-18.292101 66.239888 0 18.292101 18.292101 18.292101 47.947787 0 66.239888l-152.877002 152.877002L730.067394 663.829549z" fill="#d81e06" /></svg>