<?xml version="1.0" standalone="no"?><!DOCTYPE svg PUBLIC "-//W3C//DTD SVG 1.1//EN" "http://www.w3.org/Graphics/SVG/1.1/DTD/svg11.dtd"><svg class="icon" width="512px" height="512.00px" viewBox="0 0 1024 1024" version="1.1" xmlns="http://www.w3.org/2000/svg"><path d="M441.6 454.4c6.4-12.8 12.8-32 12.8-57.6 0-76.8-32-115.2-96-115.2H268.8v384h57.6V499.2h32l51.2 166.4h57.6l-57.6-172.8c12.8-12.8 25.6-25.6 32-38.4z m-44.8-32c0 6.4 0 12.8-6.4 19.2 0 0-6.4 6.4-12.8 6.4s-12.8 6.4-25.6 6.4h-25.6V332.8h25.6c19.2 0 32 6.4 38.4 12.8 6.4 6.4 6.4 12.8 6.4 19.2v57.6z m185.6 320h166.4v-57.6H633.6V576h96v-51.2H633.6V409.6h108.8v-51.2H582.4v384zM832 128v64c38.4 0 64 25.6 64 64v512c0 38.4-25.6 64-64 64v64c70.4 0 128-57.6 128-128V256c0-70.4-57.6-128-128-128zM64 256v512c0 70.4 57.6 128 128 128v-64c-38.4 0-64-25.6-64-64V256c0-38.4 25.6-64 64-64V128c-70.4 0-128 57.6-128 128z" fill="#ffffff" /></svg>